<mxfile host="app.diagrams.net" modified="2024-03-18T08:56:20.633Z" agent="Mozilla/5.0 (Windows NT 10.0; Win64; x64) AppleWebKit/537.36 (KHTML, like Gecko) Chrome/122.0.0.0 Safari/537.36" etag="ty6a6pMTRjaKikhy2S1a" version="24.0.7" type="github">
  <diagram id="C5RBs43oDa-KdzZeNtuy" name="Page-1">
    <mxGraphModel dx="1674" dy="891" grid="1" gridSize="10" guides="1" tooltips="1" connect="1" arrows="1" fold="1" page="1" pageScale="1" pageWidth="827" pageHeight="1169" math="0" shadow="0">
      <root>
        <mxCell id="WIyWlLk6GJQsqaUBKTNV-0" />
        <mxCell id="WIyWlLk6GJQsqaUBKTNV-1" parent="WIyWlLk6GJQsqaUBKTNV-0" />
        <mxCell id="vq_UEweOmZDO1xIOBb29-7" value="" style="edgeStyle=none;curved=1;rounded=0;orthogonalLoop=1;jettySize=auto;html=1;fontSize=12;startSize=8;endSize=8;" edge="1" parent="WIyWlLk6GJQsqaUBKTNV-1" source="WIyWlLk6GJQsqaUBKTNV-3" target="vq_UEweOmZDO1xIOBb29-6">
          <mxGeometry relative="1" as="geometry" />
        </mxCell>
        <mxCell id="WIyWlLk6GJQsqaUBKTNV-3" value="前端获取jsCode和phoneCode" style="rounded=1;whiteSpace=wrap;html=1;fontSize=12;glass=0;strokeWidth=1;shadow=0;" parent="WIyWlLk6GJQsqaUBKTNV-1" vertex="1">
          <mxGeometry x="205" y="140" width="120" height="70" as="geometry" />
        </mxCell>
        <mxCell id="vq_UEweOmZDO1xIOBb29-1" value="" style="edgeStyle=none;curved=1;rounded=0;orthogonalLoop=1;jettySize=auto;html=1;fontSize=12;startSize=8;endSize=8;" edge="1" parent="WIyWlLk6GJQsqaUBKTNV-1" source="vq_UEweOmZDO1xIOBb29-0" target="WIyWlLk6GJQsqaUBKTNV-3">
          <mxGeometry relative="1" as="geometry" />
        </mxCell>
        <mxCell id="vq_UEweOmZDO1xIOBb29-0" value="小程序用户登录" style="shape=parallelogram;perimeter=parallelogramPerimeter;whiteSpace=wrap;html=1;fixedSize=1;" vertex="1" parent="WIyWlLk6GJQsqaUBKTNV-1">
          <mxGeometry x="205" y="40" width="120" height="60" as="geometry" />
        </mxCell>
        <mxCell id="vq_UEweOmZDO1xIOBb29-9" value="" style="edgeStyle=none;curved=1;rounded=0;orthogonalLoop=1;jettySize=auto;html=1;fontSize=12;startSize=8;endSize=8;" edge="1" parent="WIyWlLk6GJQsqaUBKTNV-1" source="vq_UEweOmZDO1xIOBb29-6">
          <mxGeometry relative="1" as="geometry">
            <mxPoint x="265" y="400" as="targetPoint" />
          </mxGeometry>
        </mxCell>
        <mxCell id="vq_UEweOmZDO1xIOBb29-6" value="后端根据jsCode获取openId，根据phoneCode获取手机号" style="rounded=1;whiteSpace=wrap;html=1;fontSize=12;glass=0;strokeWidth=1;shadow=0;" vertex="1" parent="WIyWlLk6GJQsqaUBKTNV-1">
          <mxGeometry x="205" y="270" width="120" height="70" as="geometry" />
        </mxCell>
        <mxCell id="vq_UEweOmZDO1xIOBb29-13" value="" style="edgeStyle=none;curved=1;rounded=0;orthogonalLoop=1;jettySize=auto;html=1;fontSize=12;startSize=8;endSize=8;" edge="1" parent="WIyWlLk6GJQsqaUBKTNV-1" source="vq_UEweOmZDO1xIOBb29-10" target="vq_UEweOmZDO1xIOBb29-12">
          <mxGeometry relative="1" as="geometry" />
        </mxCell>
        <mxCell id="vq_UEweOmZDO1xIOBb29-14" value="已存在" style="edgeLabel;html=1;align=center;verticalAlign=middle;resizable=0;points=[];fontSize=12;" vertex="1" connectable="0" parent="vq_UEweOmZDO1xIOBb29-13">
          <mxGeometry x="-0.4333" relative="1" as="geometry">
            <mxPoint y="13" as="offset" />
          </mxGeometry>
        </mxCell>
        <mxCell id="vq_UEweOmZDO1xIOBb29-18" value="" style="edgeStyle=none;curved=1;rounded=0;orthogonalLoop=1;jettySize=auto;html=1;fontSize=12;startSize=8;endSize=8;" edge="1" parent="WIyWlLk6GJQsqaUBKTNV-1" source="vq_UEweOmZDO1xIOBb29-10" target="vq_UEweOmZDO1xIOBb29-17">
          <mxGeometry relative="1" as="geometry" />
        </mxCell>
        <mxCell id="vq_UEweOmZDO1xIOBb29-19" value="不存在" style="edgeLabel;html=1;align=center;verticalAlign=middle;resizable=0;points=[];fontSize=12;" vertex="1" connectable="0" parent="vq_UEweOmZDO1xIOBb29-18">
          <mxGeometry x="-0.536" y="-1" relative="1" as="geometry">
            <mxPoint x="26" y="-1" as="offset" />
          </mxGeometry>
        </mxCell>
        <mxCell id="vq_UEweOmZDO1xIOBb29-10" value="openId在数据库中是否存在" style="rhombus;whiteSpace=wrap;html=1;" vertex="1" parent="WIyWlLk6GJQsqaUBKTNV-1">
          <mxGeometry x="200" y="400" width="130" height="90" as="geometry" />
        </mxCell>
        <mxCell id="vq_UEweOmZDO1xIOBb29-11" style="edgeStyle=none;curved=1;rounded=0;orthogonalLoop=1;jettySize=auto;html=1;exitX=1;exitY=1;exitDx=0;exitDy=0;fontSize=12;startSize=8;endSize=8;" edge="1" parent="WIyWlLk6GJQsqaUBKTNV-1" source="vq_UEweOmZDO1xIOBb29-10" target="vq_UEweOmZDO1xIOBb29-10">
          <mxGeometry relative="1" as="geometry" />
        </mxCell>
        <mxCell id="vq_UEweOmZDO1xIOBb29-30" value="" style="edgeStyle=none;curved=1;rounded=0;orthogonalLoop=1;jettySize=auto;html=1;fontSize=12;startSize=8;endSize=8;" edge="1" parent="WIyWlLk6GJQsqaUBKTNV-1" source="vq_UEweOmZDO1xIOBb29-12" target="vq_UEweOmZDO1xIOBb29-29">
          <mxGeometry relative="1" as="geometry" />
        </mxCell>
        <mxCell id="vq_UEweOmZDO1xIOBb29-12" value="返回用户信息" style="rounded=1;whiteSpace=wrap;html=1;" vertex="1" parent="WIyWlLk6GJQsqaUBKTNV-1">
          <mxGeometry x="205" y="550" width="120" height="60" as="geometry" />
        </mxCell>
        <mxCell id="vq_UEweOmZDO1xIOBb29-21" style="edgeStyle=none;curved=1;rounded=0;orthogonalLoop=1;jettySize=auto;html=1;entryX=0.5;entryY=0;entryDx=0;entryDy=0;fontSize=12;startSize=8;endSize=8;" edge="1" parent="WIyWlLk6GJQsqaUBKTNV-1" source="vq_UEweOmZDO1xIOBb29-17" target="vq_UEweOmZDO1xIOBb29-20">
          <mxGeometry relative="1" as="geometry" />
        </mxCell>
        <mxCell id="vq_UEweOmZDO1xIOBb29-17" value="根据手机查询用户" style="rounded=1;whiteSpace=wrap;html=1;" vertex="1" parent="WIyWlLk6GJQsqaUBKTNV-1">
          <mxGeometry x="455" y="415" width="120" height="60" as="geometry" />
        </mxCell>
        <mxCell id="vq_UEweOmZDO1xIOBb29-22" style="edgeStyle=none;curved=1;rounded=0;orthogonalLoop=1;jettySize=auto;html=1;entryX=1;entryY=0.5;entryDx=0;entryDy=0;fontSize=12;startSize=8;endSize=8;" edge="1" parent="WIyWlLk6GJQsqaUBKTNV-1" source="vq_UEweOmZDO1xIOBb29-20" target="vq_UEweOmZDO1xIOBb29-12">
          <mxGeometry relative="1" as="geometry" />
        </mxCell>
        <mxCell id="vq_UEweOmZDO1xIOBb29-24" value="已存在" style="edgeLabel;html=1;align=center;verticalAlign=middle;resizable=0;points=[];fontSize=12;" vertex="1" connectable="0" parent="vq_UEweOmZDO1xIOBb29-22">
          <mxGeometry x="0.0933" y="-2" relative="1" as="geometry">
            <mxPoint as="offset" />
          </mxGeometry>
        </mxCell>
        <mxCell id="vq_UEweOmZDO1xIOBb29-26" value="" style="edgeStyle=none;curved=1;rounded=0;orthogonalLoop=1;jettySize=auto;html=1;fontSize=12;startSize=8;endSize=8;" edge="1" parent="WIyWlLk6GJQsqaUBKTNV-1" source="vq_UEweOmZDO1xIOBb29-20" target="vq_UEweOmZDO1xIOBb29-25">
          <mxGeometry relative="1" as="geometry" />
        </mxCell>
        <mxCell id="vq_UEweOmZDO1xIOBb29-27" value="不存在" style="edgeLabel;html=1;align=center;verticalAlign=middle;resizable=0;points=[];fontSize=12;" vertex="1" connectable="0" parent="vq_UEweOmZDO1xIOBb29-26">
          <mxGeometry x="-0.4" relative="1" as="geometry">
            <mxPoint y="9" as="offset" />
          </mxGeometry>
        </mxCell>
        <mxCell id="vq_UEweOmZDO1xIOBb29-20" value="用户是否已存在" style="rhombus;whiteSpace=wrap;html=1;" vertex="1" parent="WIyWlLk6GJQsqaUBKTNV-1">
          <mxGeometry x="475" y="540" width="80" height="80" as="geometry" />
        </mxCell>
        <mxCell id="vq_UEweOmZDO1xIOBb29-25" value="新增用户并返回用户信息" style="rounded=1;whiteSpace=wrap;html=1;" vertex="1" parent="WIyWlLk6GJQsqaUBKTNV-1">
          <mxGeometry x="455" y="690" width="120" height="60" as="geometry" />
        </mxCell>
        <mxCell id="vq_UEweOmZDO1xIOBb29-28" style="edgeStyle=none;curved=1;rounded=0;orthogonalLoop=1;jettySize=auto;html=1;exitX=0;exitY=0.5;exitDx=0;exitDy=0;entryX=1.017;entryY=0.617;entryDx=0;entryDy=0;entryPerimeter=0;fontSize=12;startSize=8;endSize=8;" edge="1" parent="WIyWlLk6GJQsqaUBKTNV-1" source="vq_UEweOmZDO1xIOBb29-25" target="vq_UEweOmZDO1xIOBb29-12">
          <mxGeometry relative="1" as="geometry" />
        </mxCell>
        <mxCell id="vq_UEweOmZDO1xIOBb29-32" value="" style="edgeStyle=none;curved=1;rounded=0;orthogonalLoop=1;jettySize=auto;html=1;fontSize=12;startSize=8;endSize=8;" edge="1" parent="WIyWlLk6GJQsqaUBKTNV-1" source="vq_UEweOmZDO1xIOBb29-29" target="vq_UEweOmZDO1xIOBb29-31">
          <mxGeometry relative="1" as="geometry" />
        </mxCell>
        <mxCell id="vq_UEweOmZDO1xIOBb29-29" value="返回用户信息" style="rounded=1;whiteSpace=wrap;html=1;" vertex="1" parent="WIyWlLk6GJQsqaUBKTNV-1">
          <mxGeometry x="205" y="690" width="120" height="60" as="geometry" />
        </mxCell>
        <mxCell id="vq_UEweOmZDO1xIOBb29-34" value="" style="edgeStyle=none;curved=1;rounded=0;orthogonalLoop=1;jettySize=auto;html=1;fontSize=12;startSize=8;endSize=8;" edge="1" parent="WIyWlLk6GJQsqaUBKTNV-1" source="vq_UEweOmZDO1xIOBb29-31" target="vq_UEweOmZDO1xIOBb29-33">
          <mxGeometry relative="1" as="geometry" />
        </mxCell>
        <mxCell id="vq_UEweOmZDO1xIOBb29-31" value="获取用户ID等信息创创建accessToken和refreshToken" style="rounded=1;whiteSpace=wrap;html=1;" vertex="1" parent="WIyWlLk6GJQsqaUBKTNV-1">
          <mxGeometry x="205" y="810" width="120" height="60" as="geometry" />
        </mxCell>
        <mxCell id="vq_UEweOmZDO1xIOBb29-36" value="" style="edgeStyle=none;curved=1;rounded=0;orthogonalLoop=1;jettySize=auto;html=1;fontSize=12;startSize=8;endSize=8;" edge="1" parent="WIyWlLk6GJQsqaUBKTNV-1" source="vq_UEweOmZDO1xIOBb29-33" target="vq_UEweOmZDO1xIOBb29-35">
          <mxGeometry relative="1" as="geometry" />
        </mxCell>
        <mxCell id="vq_UEweOmZDO1xIOBb29-33" value="返回前端at和rt，前端在请求头新增&lt;span style=&quot;color: rgb(33, 33, 33); font-family: Inter, system-ui, -apple-system, BlinkMacSystemFont, &amp;quot;Segoe UI&amp;quot;, Roboto, Oxygen, Ubuntu, Cantarell, &amp;quot;Fira Sans&amp;quot;, &amp;quot;Droid Sans&amp;quot;, Helvetica, Arial, sans-serif; text-align: left; white-space-collapse: preserve; background-color: rgb(255, 255, 255);&quot;&gt;Authorization字段值为beare +at&lt;/span&gt;" style="rounded=1;whiteSpace=wrap;html=1;" vertex="1" parent="WIyWlLk6GJQsqaUBKTNV-1">
          <mxGeometry x="205" y="930" width="120" height="60" as="geometry" />
        </mxCell>
        <mxCell id="vq_UEweOmZDO1xIOBb29-35" value="结束" style="shape=parallelogram;perimeter=parallelogramPerimeter;whiteSpace=wrap;html=1;fixedSize=1;rounded=1;" vertex="1" parent="WIyWlLk6GJQsqaUBKTNV-1">
          <mxGeometry x="205" y="1050" width="120" height="60" as="geometry" />
        </mxCell>
        <mxCell id="vq_UEweOmZDO1xIOBb29-37" value="创建token后会同时保存在redis和mysql中，以后会优先从redis中拿数据，Redis中不存在再从mysql中拿数据" style="shape=note;whiteSpace=wrap;html=1;backgroundOutline=1;darkOpacity=0.05;" vertex="1" parent="WIyWlLk6GJQsqaUBKTNV-1">
          <mxGeometry x="480" y="790" width="80" height="100" as="geometry" />
        </mxCell>
      </root>
    </mxGraphModel>
  </diagram>
</mxfile>
